<svg width="32" height="32" viewBox="0 0 32 32" fill="none" xmlns="http://www.w3.org/2000/svg">
<path fill-rule="evenodd" clip-rule="evenodd" d="M10 4V14C10 14.5523 9.55229 15 9 15C8.44771 15 8 14.5523 8 14V3C8 2.44772 8.44771 2 9 2H23C23.5523 2 24 2.44772 24 3V10C24 10.5523 23.5523 11 23 11C22.4477 11 22 10.5523 22 10V4H10ZM15 29V18C15 17.4477 14.5523 17 14 17H1C0.447715 17 0 17.4477 0 18V30C0 30.5523 0.447715 31 1 31H14H17.938C17.9484 31 17.9587 30.9998 17.969 30.9995C17.9793 30.9998 17.9896 31 18 31H31C31.5523 31 32 30.5523 32 30V14C32 13.4477 31.5523 13 31 13H18C17.4477 13 17 13.4477 17 14V29H15ZM2 19V29H13V19H2ZM6 23C5.44772 23 5 22.5523 5 22C5 21.4477 5.44772 21 6 21H9C9.55229 21 10 21.4477 10 22C10 22.5523 9.55229 23 9 23H6ZM30 15H19V29H30V15ZM23 23C22.4477 23 22 22.5523 22 22C22 21.4477 22.4477 21 23 21H26C26.5523 21 27 21.4477 27 22C27 22.5523 26.5523 23 26 23H23ZM22 18.5C22 19.0523 22.4477 19.5 23 19.5H26C26.5523 19.5 27 19.0523 27 18.5C27 17.9477 26.5523 17.5 26 17.5H23C22.4477 17.5 22 17.9477 22 18.5ZM14 7.5C13.4477 7.5 13 7.05228 13 6.5C13 5.94772 13.4477 5.5 14 5.5H18C18.5523 5.5 19 5.94772 19 6.5C19 7.05228 18.5523 7.5 18 7.5H14ZM13 10.5C13 11.0523 13.4477 11.5 14 11.5H18C18.5523 11.5 19 11.0523 19 10.5C19 9.94772 18.5523 9.5 18 9.5H14C13.4477 9.5 13 9.94772 13 10.5ZM6 27C5.44772 27 5 26.5523 5 26C5 25.4477 5.44772 25 6 25H9C9.55229 25 10 25.4477 10 26C10 26.5523 9.55229 27 9 27H6ZM22 26C22 26.5523 22.4477 27 23 27H26C26.5523 27 27 26.5523 27 26C27 25.4477 26.5523 25 26 25H23C22.4477 25 22 25.4477 22 26Z" fill="#666666"/>
<mask id="mask0_198_307" style="mask-type:alpha" maskUnits="userSpaceOnUse" x="0" y="2" width="32" height="29">
<path fill-rule="evenodd" clip-rule="evenodd" d="M10 4V14C10 14.5523 9.55229 15 9 15C8.44771 15 8 14.5523 8 14V3C8 2.44772 8.44771 2 9 2H23C23.5523 2 24 2.44772 24 3V10C24 10.5523 23.5523 11 23 11C22.4477 11 22 10.5523 22 10V4H10ZM15 29V18C15 17.4477 14.5523 17 14 17H1C0.447715 17 0 17.4477 0 18V30C0 30.5523 0.447715 31 1 31H14H17.938C17.9484 31 17.9587 30.9998 17.969 30.9995C17.9793 30.9998 17.9896 31 18 31H31C31.5523 31 32 30.5523 32 30V14C32 13.4477 31.5523 13 31 13H18C17.4477 13 17 13.4477 17 14V29H15ZM2 19V29H13V19H2ZM6 23C5.44772 23 5 22.5523 5 22C5 21.4477 5.44772 21 6 21H9C9.55229 21 10 21.4477 10 22C10 22.5523 9.55229 23 9 23H6ZM30 15H19V29H30V15ZM23 23C22.4477 23 22 22.5523 22 22C22 21.4477 22.4477 21 23 21H26C26.5523 21 27 21.4477 27 22C27 22.5523 26.5523 23 26 23H23ZM22 18.5C22 19.0523 22.4477 19.5 23 19.5H26C26.5523 19.5 27 19.0523 27 18.5C27 17.9477 26.5523 17.5 26 17.5H23C22.4477 17.5 22 17.9477 22 18.5ZM14 7.5C13.4477 7.5 13 7.05228 13 6.5C13 5.94772 13.4477 5.5 14 5.5H18C18.5523 5.5 19 5.94772 19 6.5C19 7.05228 18.5523 7.5 18 7.5H14ZM13 10.5C13 11.0523 13.4477 11.5 14 11.5H18C18.5523 11.5 19 11.0523 19 10.5C19 9.94772 18.5523 9.5 18 9.5H14C13.4477 9.5 13 9.94772 13 10.5ZM6 27C5.44772 27 5 26.5523 5 26C5 25.4477 5.44772 25 6 25H9C9.55229 25 10 25.4477 10 26C10 26.5523 9.55229 27 9 27H6ZM22 26C22 26.5523 22.4477 27 23 27H26C26.5523 27 27 26.5523 27 26C27 25.4477 26.5523 25 26 25H23C22.4477 25 22 25.4477 22 26Z" fill="white"/>
</mask>
<g mask="url(#mask0_198_307)">
</g>
</svg>
