<svg width="32" height="32" viewBox="0 0 32 32" fill="none" xmlns="http://www.w3.org/2000/svg">
<g id="_Icons/_Old/Main/Analitics">
<path id="Analitics-icon" fill-rule="evenodd" clip-rule="evenodd" d="M8.957 10.457L2.707 16.707C2.316 17.098 1.684 17.098 1.293 16.707C0.902 16.316 0.902 15.684 1.293 15.293L8.293 8.293C8.7 7.886 9.365 7.905 9.748 8.336L17.016 16.513L27.707 5H20C19.448 5 19 4.553 19 4C19 3.447 19.448 3 20 3H30C30.0305 3 30.0581 3.00749 30.0858 3.01501C30.1045 3.02009 30.1233 3.02518 30.143 3.028C30.1601 3.03073 30.1771 3.0331 30.194 3.03546C30.2516 3.04347 30.3084 3.05137 30.364 3.073C30.4219 3.09634 30.4708 3.13068 30.5205 3.16561C30.5326 3.17409 30.5447 3.1826 30.557 3.191C30.5729 3.20214 30.5899 3.21091 30.607 3.2197C30.6328 3.23299 30.6587 3.24633 30.681 3.268C30.683 3.26952 30.6843 3.2718 30.6857 3.27433C30.687 3.27681 30.6885 3.27953 30.691 3.282C30.7407 3.32998 30.7764 3.38823 30.8127 3.44733C30.8188 3.45721 30.8248 3.46712 30.831 3.477C30.8411 3.49272 30.8526 3.50773 30.8641 3.52273C30.8833 3.54781 30.9025 3.57284 30.915 3.601C30.9273 3.62878 30.9325 3.65923 30.9376 3.68999C30.9408 3.70906 30.944 3.72825 30.949 3.747C30.9522 3.75887 30.9555 3.77069 30.9588 3.7825C30.9771 3.84825 30.9952 3.91333 30.996 3.982C30.9964 3.98434 30.9971 3.98652 30.9978 3.98873C30.9989 3.9922 31 3.99573 31 4V14C31 14.553 30.552 15 30 15C29.448 15 29 14.553 29 14V6.547L17.733 18.681C17.331 19.113 16.645 19.105 16.252 18.664L8.957 10.457ZM1 26.5H31C31.552 26.5 32 26.947 32 27.5C32 28.053 31.552 28.5 31 28.5H1C0.448 28.5 0 28.053 0 27.5C0 26.947 0.448 26.5 1 26.5Z" fill="#0A0B0F"/>
<mask id="mask0_0_14948" style="mask-type:alpha" maskUnits="userSpaceOnUse" x="0" y="3" width="32" height="26">
<path id="Analitics-icon_2" fill-rule="evenodd" clip-rule="evenodd" d="M8.957 10.457L2.707 16.707C2.316 17.098 1.684 17.098 1.293 16.707C0.902 16.316 0.902 15.684 1.293 15.293L8.293 8.293C8.7 7.886 9.365 7.905 9.748 8.336L17.016 16.513L27.707 5H20C19.448 5 19 4.553 19 4C19 3.447 19.448 3 20 3H30C30.0305 3 30.0581 3.00749 30.0858 3.01501C30.1045 3.02009 30.1233 3.02518 30.143 3.028C30.1601 3.03073 30.1771 3.0331 30.194 3.03546C30.2516 3.04347 30.3084 3.05137 30.364 3.073C30.4219 3.09634 30.4708 3.13068 30.5205 3.16561C30.5326 3.17409 30.5447 3.1826 30.557 3.191C30.5729 3.20214 30.5899 3.21091 30.607 3.2197C30.6328 3.23299 30.6587 3.24633 30.681 3.268C30.683 3.26952 30.6843 3.2718 30.6857 3.27433C30.687 3.27681 30.6885 3.27953 30.691 3.282C30.7407 3.32998 30.7764 3.38823 30.8127 3.44733C30.8188 3.45721 30.8248 3.46712 30.831 3.477C30.8411 3.49272 30.8526 3.50773 30.8641 3.52273C30.8833 3.54781 30.9025 3.57284 30.915 3.601C30.9273 3.62878 30.9325 3.65923 30.9376 3.68999C30.9408 3.70906 30.944 3.72825 30.949 3.747C30.9522 3.75887 30.9555 3.77069 30.9588 3.7825C30.9771 3.84825 30.9952 3.91333 30.996 3.982C30.9964 3.98434 30.9971 3.98652 30.9978 3.98873C30.9989 3.9922 31 3.99573 31 4V14C31 14.553 30.552 15 30 15C29.448 15 29 14.553 29 14V6.547L17.733 18.681C17.331 19.113 16.645 19.105 16.252 18.664L8.957 10.457ZM1 26.5H31C31.552 26.5 32 26.947 32 27.5C32 28.053 31.552 28.5 31 28.5H1C0.448 28.5 0 28.053 0 27.5C0 26.947 0.448 26.5 1 26.5Z" fill="white"/>
</mask>
<g mask="url(#mask0_0_14948)">
</g>
</g>
</svg>
