<svg width="32" height="32" viewBox="0 0 32 32" fill="none" xmlns="http://www.w3.org/2000/svg">
<path fill-rule="evenodd" clip-rule="evenodd" d="M24 4C24 3.44772 24.4477 3 25 3H31C31.5523 3 32 3.44772 32 4V28C32 28.5523 31.5523 29 31 29H1C0.447715 29 0 28.5523 0 28V4C0 3.44772 0.447715 3 1 3H7C7.55228 3 8 3.44772 8 4C8 5.10472 8.89528 6 10 6C11.1047 6 12 5.10472 12 4C12 3.44772 12.4477 3 13 3H19C19.5523 3 20 3.44772 20 4C20 5.10472 20.8953 6 22 6C23.1047 6 24 5.10472 24 4ZM22 8C20.136 8 18.57 6.72531 18.126 5H13.874C13.43 6.72531 11.864 8 10 8C8.13602 8 6.56999 6.72531 6.126 5H2V27H30V5H25.874C25.43 6.72531 23.864 8 22 8ZM10 17C8.34315 17 7 15.6569 7 14C7 12.3431 8.34315 11 10 11C11.6569 11 13 12.3431 13 14C13 15.6569 11.6569 17 10 17ZM10 15C10.5523 15 11 14.5523 11 14C11 13.4477 10.5523 13 10 13C9.44772 13 9 13.4477 9 14C9 14.5523 9.44772 15 10 15ZM19 16C18.4477 16 18 15.5523 18 15C18 14.4477 18.4477 14 19 14H26C26.5523 14 27 14.4477 27 15C27 15.5523 26.5523 16 26 16H19ZM19 21C18.4477 21 18 20.5523 18 20C18 19.4477 18.4477 19 19 19H26C26.5523 19 27 19.4477 27 20C27 20.5523 26.5523 21 26 21H19ZM15 24C15.5523 24 16 23.5523 16 23C16 20.2387 13.7613 18 11 18H9C6.23872 18 4 20.2387 4 23C4 23.5523 4.44772 24 5 24H15ZM11 20C12.3061 20 13.4174 20.8349 13.8293 22H6.17074C6.58262 20.8349 7.69391 20 9 20H11Z" fill="#666666"/>
<mask id="mask0_198_342" style="mask-type:alpha" maskUnits="userSpaceOnUse" x="0" y="3" width="32" height="26">
<path fill-rule="evenodd" clip-rule="evenodd" d="M24 4C24 3.44772 24.4477 3 25 3H31C31.5523 3 32 3.44772 32 4V28C32 28.5523 31.5523 29 31 29H1C0.447715 29 0 28.5523 0 28V4C0 3.44772 0.447715 3 1 3H7C7.55228 3 8 3.44772 8 4C8 5.10472 8.89528 6 10 6C11.1047 6 12 5.10472 12 4C12 3.44772 12.4477 3 13 3H19C19.5523 3 20 3.44772 20 4C20 5.10472 20.8953 6 22 6C23.1047 6 24 5.10472 24 4ZM22 8C20.136 8 18.57 6.72531 18.126 5H13.874C13.43 6.72531 11.864 8 10 8C8.13602 8 6.56999 6.72531 6.126 5H2V27H30V5H25.874C25.43 6.72531 23.864 8 22 8ZM10 17C8.34315 17 7 15.6569 7 14C7 12.3431 8.34315 11 10 11C11.6569 11 13 12.3431 13 14C13 15.6569 11.6569 17 10 17ZM10 15C10.5523 15 11 14.5523 11 14C11 13.4477 10.5523 13 10 13C9.44772 13 9 13.4477 9 14C9 14.5523 9.44772 15 10 15ZM19 16C18.4477 16 18 15.5523 18 15C18 14.4477 18.4477 14 19 14H26C26.5523 14 27 14.4477 27 15C27 15.5523 26.5523 16 26 16H19ZM19 21C18.4477 21 18 20.5523 18 20C18 19.4477 18.4477 19 19 19H26C26.5523 19 27 19.4477 27 20C27 20.5523 26.5523 21 26 21H19ZM15 24C15.5523 24 16 23.5523 16 23C16 20.2387 13.7613 18 11 18H9C6.23872 18 4 20.2387 4 23C4 23.5523 4.44772 24 5 24H15ZM11 20C12.3061 20 13.4174 20.8349 13.8293 22H6.17074C6.58262 20.8349 7.69391 20 9 20H11Z" fill="white"/>
</mask>
<g mask="url(#mask0_198_342)">
</g>
</svg>
