<svg width="32" height="27" viewBox="0 0 32 27" fill="none" xmlns="http://www.w3.org/2000/svg">
<path fill-rule="evenodd" clip-rule="evenodd" d="M16 0C12.6863 0 10 2.5184 10 5.625C10 7.29829 10.7793 8.80094 12.0163 9.83132L9.913 12.9863L11.609 13.98L13.7114 10.8263C14.4167 11.0994 15.1896 11.25 16 11.25C19.3137 11.25 22 8.7316 22 5.625C22 2.5184 19.3137 0 16 0ZM16 1.875C18.2091 1.875 20 3.55393 20 5.625C20 7.69607 18.2091 9.375 16 9.375C13.7909 9.375 12 7.69607 12 5.625C12 3.55393 13.7909 1.875 16 1.875ZM21.425 11.9935L23.7115 15.4236C24.4167 15.1506 25.1896 15 26 15C29.3137 15 32 17.5184 32 20.625C32 23.7316 29.3137 26.25 26 26.25C22.6863 26.25 20 23.7316 20 20.625C20 18.9517 20.7794 17.449 22.0163 16.4186L19.729 12.9871L21.425 11.9935ZM11.917 21.5625H17V19.6875H11.917C11.441 17.0271 8.973 15 6 15C2.68629 15 0 17.5184 0 20.625C0 23.7316 2.68629 26.25 6 26.25C8.973 26.25 11.441 24.2229 11.917 21.5625ZM6 16.875C8.20914 16.875 10 18.5539 10 20.625C10 22.6961 8.20914 24.375 6 24.375C3.79086 24.375 2 22.6961 2 20.625C2 18.5539 3.79086 16.875 6 16.875ZM30 20.625C30 18.5539 28.2091 16.875 26 16.875C23.7909 16.875 22 18.5539 22 20.625C22 22.6961 23.7909 24.375 26 24.375C28.2091 24.375 30 22.6961 30 20.625Z" fill="#666666"/>
</svg>
