<svg width="32" height="32" viewBox="0 0 32 32" fill="none" xmlns="http://www.w3.org/2000/svg">
<path fill-rule="evenodd" clip-rule="evenodd" d="M5.33353 9V4H10.2249L13.1125 6.70711C13.3125 6.89464 13.5838 7 13.8667 7H26.6665V9C26.6665 9.55228 27.144 10 27.7331 10C28.3222 10 28.7998 9.55228 28.7998 9V6C28.7998 5.44772 28.3222 5 27.7331 5H14.3085L11.421 2.29289C11.221 2.10536 10.9497 2 10.6668 2H4.26688C3.67779 2 3.20023 2.44772 3.20023 3V9C3.20023 9.55228 3.67779 10 4.26688 10C4.85597 10 5.33353 9.55228 5.33353 9ZM27.7331 31H4.26688C3.7493 31 3.30641 30.6516 3.21646 30.1738L0.0165224 13.1738C-0.0987392 12.5614 0.403698 12 1.06694 12H30.9331C31.5963 12 32.0987 12.5614 31.9835 13.1738L28.7835 30.1738C28.6936 30.6516 28.2507 31 27.7331 31ZM26.8382 29L29.6617 14H2.3383L5.16178 29H26.8382Z" fill="#666666"/>
<mask id="mask0_198_392" style="mask-type:alpha" maskUnits="userSpaceOnUse" x="0" y="2" width="32" height="29">
<path fill-rule="evenodd" clip-rule="evenodd" d="M5.33353 9V4H10.2249L13.1125 6.70711C13.3125 6.89464 13.5838 7 13.8667 7H26.6665V9C26.6665 9.55228 27.144 10 27.7331 10C28.3222 10 28.7998 9.55228 28.7998 9V6C28.7998 5.44772 28.3222 5 27.7331 5H14.3085L11.421 2.29289C11.221 2.10536 10.9497 2 10.6668 2H4.26688C3.67779 2 3.20023 2.44772 3.20023 3V9C3.20023 9.55228 3.67779 10 4.26688 10C4.85597 10 5.33353 9.55228 5.33353 9ZM27.7331 31H4.26688C3.7493 31 3.30641 30.6516 3.21646 30.1738L0.0165224 13.1738C-0.0987392 12.5614 0.403698 12 1.06694 12H30.9331C31.5963 12 32.0987 12.5614 31.9835 13.1738L28.7835 30.1738C28.6936 30.6516 28.2507 31 27.7331 31ZM26.8382 29L29.6617 14H2.3383L5.16178 29H26.8382Z" fill="white"/>
</mask>
<g mask="url(#mask0_198_392)">
</g>
</svg>
