<svg width="32" height="32" viewBox="0 0 32 32" fill="none" xmlns="http://www.w3.org/2000/svg">
<path fill-rule="evenodd" clip-rule="evenodd" d="M2 15.6211L27.226 30.0001H2V15.6211ZM5 15.0291L3.006 13.8921L5 12.7361V15.0291ZM25 2.0001V15.9981L15.594 21.0671L7 16.1691V2.0001H25ZM28.952 13.8681L27 14.9201V12.7361L28.952 13.8681ZM17.643 22.2351L26.388 17.5211C26.39 17.5211 26.391 17.5191 26.393 17.5191L30 15.5751V29.2791L17.643 22.2351ZM32 13.9001C32 13.8892 31.9979 13.8786 31.9959 13.8681C31.9942 13.8594 31.9925 13.8507 31.992 13.8421C31.9913 13.8206 31.988 13.8006 31.9847 13.7807C31.9834 13.7729 31.9821 13.765 31.981 13.7571C31.966 13.6511 31.937 13.5511 31.89 13.4571C31.8877 13.4525 31.8867 13.4475 31.8857 13.4426C31.8845 13.4368 31.8833 13.431 31.88 13.4261C31.8788 13.4237 31.8773 13.422 31.8758 13.4204C31.8748 13.4194 31.8738 13.4183 31.873 13.4171C31.817 13.3151 31.741 13.2281 31.652 13.1511C31.629 13.1311 31.606 13.1141 31.582 13.0971C31.5704 13.0888 31.5597 13.0797 31.549 13.0706C31.5339 13.0578 31.519 13.0451 31.502 13.0351L27 10.4241V1.0001C27 0.4481 26.552 0.000100136 26 0.000100136H6C5.448 0.000100136 5 0.4481 5 1.0001V10.4241L0.498 13.0351C0.484232 13.0431 0.472439 13.0531 0.460543 13.0632C0.451703 13.0707 0.442806 13.0783 0.433 13.0851C0.408 13.1021 0.386 13.1201 0.362 13.1401C0.271 13.2161 0.19 13.3021 0.132 13.4031C0.132 13.4041 0.131 13.4041 0.131 13.4041C0.130541 13.4055 0.130293 13.4069 0.130062 13.4081C0.12979 13.4096 0.129541 13.411 0.129 13.4121C0.073 13.5121 0.041 13.6221 0.021 13.7371L0.0173515 13.7629C0.0143434 13.7835 0.0114178 13.8035 0.01 13.8241C0.00913577 13.8353 0.00715118 13.8462 0.00517587 13.857C0.00257993 13.8712 0 13.8853 0 13.9001V31.0001C0 31.5531 0.448 32.0001 1 32.0001H31C31.025 32.0001 31.0477 31.9936 31.0706 31.9871C31.088 31.9822 31.1054 31.9773 31.124 31.9751C31.193 31.9661 31.259 31.9571 31.325 31.9341C31.386 31.9131 31.439 31.8831 31.494 31.8501C31.55 31.8181 31.602 31.7871 31.651 31.7451C31.7023 31.6997 31.7429 31.6466 31.7843 31.5924L31.7843 31.5923L31.786 31.5901C31.7968 31.5759 31.8092 31.5637 31.8216 31.5514C31.8389 31.5343 31.8562 31.5173 31.869 31.4951C31.8742 31.4857 31.8765 31.476 31.8787 31.4663C31.8807 31.4575 31.8827 31.4487 31.887 31.4401C31.9141 31.3868 31.929 31.3294 31.9441 31.2709L31.949 31.2521L31.9534 31.2357L31.9534 31.2356C31.9699 31.1748 31.9853 31.1177 31.989 31.0571C31.9895 31.0475 31.9921 31.0383 31.9946 31.0292C31.9973 31.0195 32 31.0099 32 31.0001V13.9001ZM11 8H21C21.552 8 22 7.553 22 7C22 6.448 21.552 6 21 6H11C10.448 6 10 6.448 10 7C10 7.553 10.448 8 11 8ZM21 13H11C10.448 13 10 12.553 10 12C10 11.447 10.448 11 11 11H21C21.552 11 22 11.447 22 12C22 12.553 21.552 13 21 13Z" fill="#666666"/>
<mask id="mask0_198_369" style="mask-type:alpha" maskUnits="userSpaceOnUse" x="0" y="0" width="32" height="33">
<path fill-rule="evenodd" clip-rule="evenodd" d="M2 15.6211L27.226 30.0001H2V15.6211ZM5 15.0291L3.006 13.8921L5 12.7361V15.0291ZM25 2.0001V15.9981L15.594 21.0671L7 16.1691V2.0001H25ZM28.952 13.8681L27 14.9201V12.7361L28.952 13.8681ZM17.643 22.2351L26.388 17.5211C26.39 17.5211 26.391 17.5191 26.393 17.5191L30 15.5751V29.2791L17.643 22.2351ZM32 13.9001C32 13.8892 31.9979 13.8786 31.9959 13.8681C31.9942 13.8594 31.9925 13.8507 31.992 13.8421C31.9913 13.8206 31.988 13.8006 31.9847 13.7807C31.9834 13.7729 31.9821 13.765 31.981 13.7571C31.966 13.6511 31.937 13.5511 31.89 13.4571C31.8877 13.4525 31.8867 13.4475 31.8857 13.4426C31.8845 13.4368 31.8833 13.431 31.88 13.4261C31.8788 13.4237 31.8773 13.422 31.8758 13.4204C31.8748 13.4194 31.8738 13.4183 31.873 13.4171C31.817 13.3151 31.741 13.2281 31.652 13.1511C31.629 13.1311 31.606 13.1141 31.582 13.0971C31.5704 13.0888 31.5597 13.0797 31.549 13.0706C31.5339 13.0578 31.519 13.0451 31.502 13.0351L27 10.4241V1.0001C27 0.4481 26.552 0.000100136 26 0.000100136H6C5.448 0.000100136 5 0.4481 5 1.0001V10.4241L0.498 13.0351C0.484232 13.0431 0.472439 13.0531 0.460543 13.0632C0.451703 13.0707 0.442806 13.0783 0.433 13.0851C0.408 13.1021 0.386 13.1201 0.362 13.1401C0.271 13.2161 0.19 13.3021 0.132 13.4031C0.132 13.4041 0.131 13.4041 0.131 13.4041C0.130541 13.4055 0.130293 13.4069 0.130062 13.4081C0.12979 13.4096 0.129541 13.411 0.129 13.4121C0.073 13.5121 0.041 13.6221 0.021 13.7371L0.0173515 13.7629C0.0143434 13.7835 0.0114178 13.8035 0.01 13.8241C0.00913577 13.8353 0.00715118 13.8462 0.00517587 13.857C0.00257993 13.8712 0 13.8853 0 13.9001V31.0001C0 31.5531 0.448 32.0001 1 32.0001H31C31.025 32.0001 31.0477 31.9936 31.0706 31.9871C31.088 31.9822 31.1054 31.9773 31.124 31.9751C31.193 31.9661 31.259 31.9571 31.325 31.9341C31.386 31.9131 31.439 31.8831 31.494 31.8501C31.55 31.8181 31.602 31.7871 31.651 31.7451C31.7023 31.6997 31.7429 31.6466 31.7843 31.5924L31.7843 31.5923L31.786 31.5901C31.7968 31.5759 31.8092 31.5637 31.8216 31.5514C31.8389 31.5343 31.8562 31.5173 31.869 31.4951C31.8742 31.4857 31.8765 31.476 31.8787 31.4663C31.8807 31.4575 31.8827 31.4487 31.887 31.4401C31.9141 31.3868 31.929 31.3294 31.9441 31.2709L31.949 31.2521L31.9534 31.2357L31.9534 31.2356C31.9699 31.1748 31.9853 31.1177 31.989 31.0571C31.9895 31.0475 31.9921 31.0383 31.9946 31.0292C31.9973 31.0195 32 31.0099 32 31.0001V13.9001ZM11 8H21C21.552 8 22 7.553 22 7C22 6.448 21.552 6 21 6H11C10.448 6 10 6.448 10 7C10 7.553 10.448 8 11 8ZM21 13H11C10.448 13 10 12.553 10 12C10 11.447 10.448 11 11 11H21C21.552 11 22 11.447 22 12C22 12.553 21.552 13 21 13Z" fill="white"/>
</mask>
<g mask="url(#mask0_198_369)">
</g>
</svg>
