<svg width="32" height="32" viewBox="0 0 32 32" fill="none" xmlns="http://www.w3.org/2000/svg">
<path fill-rule="evenodd" clip-rule="evenodd" d="M16 10C13.2386 10 11 7.76142 11 5C11 2.23858 13.2386 0 16 0C18.7614 0 21 2.23858 21 5C21 7.76142 18.7614 10 16 10ZM16 8C17.6569 8 19 6.65685 19 5C19 3.34315 17.6569 2 16 2C14.3431 2 13 3.34315 13 5C13 6.65685 14.3431 8 16 8ZM6 10C3.79086 10 2 8.20914 2 6C2 3.79086 3.79086 2 6 2C8.20914 2 10 3.79086 10 6C10 8.20914 8.20914 10 6 10ZM6 8C7.10457 8 8 7.10457 8 6C8 4.89543 7.10457 4 6 4C4.89543 4 4 4.89543 4 6C4 7.10457 4.89543 8 6 8ZM1 21H2V27C2 27.5523 2.44772 28 3 28H9C9.55229 28 10 27.5523 10 27C10 26.4477 9.55229 26 9 26H4V20C4 19.4477 3.55228 19 3 19H2V15C2 13.8953 2.89528 13 4 13H8C8.60921 13 9.17061 13.2771 9.54395 13.7298C9.19616 14.4111 9 15.1827 9 16V23C9 23.5523 9.44771 24 10 24H12V31C12 31.5523 12.4477 32 13 32H19C19.5523 32 20 31.5523 20 31V24H22C22.5523 24 23 23.5523 23 23V16C23 15.1827 22.8038 14.4111 22.4561 13.7298C22.8294 13.2771 23.3908 13 24 13H28C29.1047 13 30 13.8953 30 15V19H29C28.4477 19 28 19.4477 28 20V26H23C22.4477 26 22 26.4477 22 27C22 27.5523 22.4477 28 23 28H29C29.5523 28 30 27.5523 30 27V21H31C31.5523 21 32 20.5523 32 20V15C32 12.7907 30.2093 11 28 11H24C22.9244 11 21.925 11.4305 21.1926 12.1519C20.3266 11.4326 19.2138 11 18 11H14C12.7862 11 11.6734 11.4326 10.8074 12.1519C10.075 11.4305 9.07556 11 8 11H4C1.79072 11 0 12.7907 0 15V20C0 20.5523 0.447715 21 1 21ZM26 10C23.7909 10 22 8.20914 22 6C22 3.79086 23.7909 2 26 2C28.2091 2 30 3.79086 30 6C30 8.20914 28.2091 10 26 10ZM26 8C27.1046 8 28 7.10457 28 6C28 4.89543 27.1046 4 26 4C24.8954 4 24 4.89543 24 6C24 7.10457 24.8954 8 26 8ZM18 23V30H14V23C14 22.4477 13.5523 22 13 22H11V16C11 14.3433 12.3433 13 14 13H18C19.6567 13 21 14.3433 21 16V22H19C18.4477 22 18 22.4477 18 23Z" fill="#666666"/>
<mask id="mask0_198_421" style="mask-type:alpha" maskUnits="userSpaceOnUse" x="0" y="0" width="32" height="32">
<path fill-rule="evenodd" clip-rule="evenodd" d="M16 10C13.2386 10 11 7.76142 11 5C11 2.23858 13.2386 0 16 0C18.7614 0 21 2.23858 21 5C21 7.76142 18.7614 10 16 10ZM16 8C17.6569 8 19 6.65685 19 5C19 3.34315 17.6569 2 16 2C14.3431 2 13 3.34315 13 5C13 6.65685 14.3431 8 16 8ZM6 10C3.79086 10 2 8.20914 2 6C2 3.79086 3.79086 2 6 2C8.20914 2 10 3.79086 10 6C10 8.20914 8.20914 10 6 10ZM6 8C7.10457 8 8 7.10457 8 6C8 4.89543 7.10457 4 6 4C4.89543 4 4 4.89543 4 6C4 7.10457 4.89543 8 6 8ZM1 21H2V27C2 27.5523 2.44772 28 3 28H9C9.55229 28 10 27.5523 10 27C10 26.4477 9.55229 26 9 26H4V20C4 19.4477 3.55228 19 3 19H2V15C2 13.8953 2.89528 13 4 13H8C8.60921 13 9.17061 13.2771 9.54395 13.7298C9.19616 14.4111 9 15.1827 9 16V23C9 23.5523 9.44771 24 10 24H12V31C12 31.5523 12.4477 32 13 32H19C19.5523 32 20 31.5523 20 31V24H22C22.5523 24 23 23.5523 23 23V16C23 15.1827 22.8038 14.4111 22.4561 13.7298C22.8294 13.2771 23.3908 13 24 13H28C29.1047 13 30 13.8953 30 15V19H29C28.4477 19 28 19.4477 28 20V26H23C22.4477 26 22 26.4477 22 27C22 27.5523 22.4477 28 23 28H29C29.5523 28 30 27.5523 30 27V21H31C31.5523 21 32 20.5523 32 20V15C32 12.7907 30.2093 11 28 11H24C22.9244 11 21.925 11.4305 21.1926 12.1519C20.3266 11.4326 19.2138 11 18 11H14C12.7862 11 11.6734 11.4326 10.8074 12.1519C10.075 11.4305 9.07556 11 8 11H4C1.79072 11 0 12.7907 0 15V20C0 20.5523 0.447715 21 1 21ZM26 10C23.7909 10 22 8.20914 22 6C22 3.79086 23.7909 2 26 2C28.2091 2 30 3.79086 30 6C30 8.20914 28.2091 10 26 10ZM26 8C27.1046 8 28 7.10457 28 6C28 4.89543 27.1046 4 26 4C24.8954 4 24 4.89543 24 6C24 7.10457 24.8954 8 26 8ZM18 23V30H14V23C14 22.4477 13.5523 22 13 22H11V16C11 14.3433 12.3433 13 14 13H18C19.6567 13 21 14.3433 21 16V22H19C18.4477 22 18 22.4477 18 23Z" fill="white"/>
</mask>
<g mask="url(#mask0_198_421)">
</g>
</svg>
